<svg width="12px" height="12px" viewBox="0 0 12 12" version="1.1" xmlns="http://www.w3.org/2000/svg" xmlns:xlink="http://www.w3.org/1999/xlink">
    <!-- Generator: Sketch 51.3 (57544) - http://www.bohemiancoding.com/sketch -->
    <desc>Created with Sketch.</desc>
    <defs></defs>
    <g id="Symbols" stroke="none" stroke-width="1" fill="none" fill-rule="evenodd">
        <g id="02.icon_MW/Header/Search_Small" transform="translate(-11.000000, -16.000000)" fill="#FFFFFF" fill-rule="nonzero">
            <path d="M15.9852379,24.9734283 C18.1878546,24.9734283 19.9734283,23.1878546 19.9734283,20.9852379 C19.9734283,18.7826212 18.1878546,16.9970476 15.9852379,16.9970476 C13.7826212,16.9970476 11.9970476,18.7826212 11.9970476,20.9852379 C11.9970476,23.1878546 13.7826212,24.9734283 15.9852379,24.9734283 Z M19.8452804,24.1402613 L22.8539858,27.1489667 C23.0486714,27.3436523 23.0486714,27.6593001 22.8539858,27.8539858 C22.6593001,28.0486714 22.3436523,28.0486714 22.1489667,27.8539858 L19.1402613,24.8452804 C18.2808708,25.5485426 17.1823282,25.9704758 15.9852379,25.9704758 C13.231967,25.9704758 11,23.7385088 11,20.9852379 C11,18.231967 13.231967,16 15.9852379,16 C18.7385088,16 20.9704758,18.231967 20.9704758,20.9852379 C20.9704758,22.1823282 20.5485426,23.2808708 19.8452804,24.1402613 Z"></path>
        </g>
    </g>
</svg>
